# Blender v2.91.2 OBJ File: 'boat.blend'
# www.blender.org
mtllib boat.mtl
o Cube_Cube.001
v 1.000000 1.000000 -2.616347
v 1.000000 0.603305 -2.616347
v 1.000000 1.000000 1.000000
v 1.000000 0.603305 1.000000
v 0.901539 -0.029338 0.891829
v 0.938163 -0.018250 -2.518120
v 1.000000 1.489020 -1.083790
v 1.000000 1.489020 -2.616347
v 0.537990 -0.422348 0.452444
v 0.537990 -0.422348 -2.390297
v 1.000000 1.000000 -1.083790
v -1.000000 1.000000 -2.616347
v -1.000000 0.603305 -2.616347
v -1.000000 1.000000 1.000000
v -1.000000 0.603305 1.000000
v 0.000000 1.238778 2.926775
v 0.000000 1.489020 -1.083790
v -0.901539 -0.029338 0.891829
v -0.938163 -0.018250 -2.518120
v 0.000000 -0.029338 2.460177
v -1.000000 1.489020 -1.083790
v -1.000000 1.489020 -2.616347
v -0.537990 -0.422348 0.452444
v -0.537990 -0.422348 -2.390297
v 0.000000 -0.422348 1.388351
v -1.000000 1.000000 -1.083790
v 0.000000 1.000000 1.000000
v 0.000000 1.489020 -2.616347
v 0.000000 0.603305 -2.616347
v 0.000000 1.000000 -2.616347
v 0.000000 -0.018250 -2.518120
v 0.000000 -0.422348 0.452444
v 0.000000 -0.422348 -2.390297
v 0.000000 1.000000 -1.083790
v 0.000000 0.603305 2.837806
vt 0.750000 0.500000
vt 0.875000 0.500000
vt 0.875000 0.750000
vt 0.750000 0.750000
vt 0.375000 0.875000
vt 0.375000 1.000000
vt 0.375000 1.000000
vt 0.375000 0.875000
vt 0.625000 1.000000
vt 0.625000 0.875000
vt 0.625000 0.875000
vt 0.625000 1.000000
vt 0.375000 0.500000
vt 0.500000 0.500000
vt 0.500000 0.500000
vt 0.000000 0.000000
vt 0.875000 0.750000
vt 0.375000 0.000000
vt 0.625000 0.091282
vt 0.625000 0.250000
vt 0.375000 0.250000
vt 0.625000 0.000000
vt 0.625000 0.000000
vt 0.625000 0.091282
vt 0.000000 0.000000
vt 0.875000 0.750000
vt 0.375000 0.000000
vt 0.375000 0.250000
vt 0.375000 0.250000
vt 0.375000 0.000000
vt 0.375000 0.250000
vt 0.500000 0.250000
vt 0.500000 0.341282
vt 0.375000 0.341282
vt 0.375000 1.000000
vt 0.375000 0.875000
vt 0.000000 0.000000
vt 0.375000 0.341282
vt 0.500000 0.341282
vt 0.875000 0.750000
vt 0.875000 0.500000
vt 0.375000 1.000000
vt 0.375000 1.000000
vt 0.625000 1.000000
vt 0.625000 1.000000
vt 0.375000 0.500000
vt 0.875000 0.750000
vt 0.375000 0.000000
vt 0.375000 0.250000
vt 0.625000 0.250000
vt 0.625000 0.091282
vt 0.625000 0.091282
vt 0.625000 0.000000
vt 0.625000 0.000000
vt 0.875000 0.750000
vt 0.375000 0.000000
vt 0.375000 0.000000
vt 0.375000 0.250000
vt 0.375000 0.250000
vt 0.375000 0.250000
vt 0.375000 0.341282
vt 0.375000 1.000000
vt 0.375000 0.341282
vn 0.0000 -1.0000 0.0000
vn 0.0000 -0.1561 -0.9877
vn 0.0000 0.0000 -1.0000
vn 0.0000 0.9924 -0.1230
vn 0.8813 -0.0406 0.4708
vn 1.0000 0.0000 0.0000
vn 0.8461 -0.2472 0.4723
vn 0.7215 -0.6924 0.0030
vn 0.0000 1.0000 0.0000
vn 0.0000 -0.3016 -0.9534
vn 0.5138 -0.8055 0.2953
vn 0.9919 -0.1268 0.0050
vn 0.0000 0.0000 1.0000
vn -0.8813 -0.0406 0.4708
vn -1.0000 0.0000 0.0000
vn -0.8461 -0.2472 0.4723
vn -0.7215 -0.6924 0.0030
vn -0.5138 -0.8055 0.2953
vn -0.9919 -0.1268 0.0050
usemtl Material
s off
f 33/1/1 10/2/1 9/3/1 32/4/1
f 29/5/2 2/6/2 6/7/2 31/8/2
f 1/9/3 30/10/3 28/11/3 8/12/3
f 29/5/3 30/10/3 1/9/3 2/6/3
f 3/13/4 27/14/4 16/15/4
f 3/13/5 16/15/5 35/16/5 4/17/5
f 2/18/6 11/19/6 3/20/6 4/21/6
f 11/19/6 1/22/6 8/23/6 7/24/6
f 4/17/7 35/16/7 20/25/7 5/26/7
f 6/27/8 5/28/8 9/29/8 10/30/8
f 8/31/9 28/32/9 17/33/9 7/34/9
f 31/8/10 6/7/10 10/35/10 33/36/10
f 5/26/11 20/25/11 25/37/11 9/3/11
f 2/18/12 4/21/12 5/28/12 6/27/12
f 11/19/6 2/18/6 1/22/6
f 11/38/9 34/39/9 27/14/9 3/13/9
f 34/39/13 11/38/13 7/34/13 17/33/13
f 32/4/1 9/3/1 25/37/1
f 33/1/1 32/4/1 23/40/1 24/41/1
f 29/5/2 31/8/2 19/42/2 13/43/2
f 12/44/3 22/45/3 28/11/3 30/10/3
f 29/5/3 13/43/3 12/44/3 30/10/3
f 14/46/4 16/15/4 27/14/4
f 14/46/14 15/47/14 35/16/14 16/15/14
f 13/48/15 15/49/15 14/50/15 26/51/15
f 26/51/15 21/52/15 22/53/15 12/54/15
f 15/47/16 18/55/16 20/25/16 35/16/16
f 19/56/17 24/57/17 23/58/17 18/59/17
f 22/60/9 21/61/9 17/33/9 28/32/9
f 31/8/10 33/36/10 24/62/10 19/42/10
f 18/55/18 23/40/18 25/37/18 20/25/18
f 13/48/19 19/56/19 18/59/19 15/49/19
f 26/51/15 12/54/15 13/48/15
f 26/63/9 14/46/9 27/14/9 34/39/9
f 34/39/13 17/33/13 21/61/13 26/63/13
f 32/4/1 25/37/1 23/40/1
o Cylinder
v 0.000000 1.000000 -0.132852
v 0.000000 4.356010 -0.132852
v 0.115053 1.000000 -0.066426
v 0.115053 4.356010 -0.066426
v 0.115053 1.000000 0.066426
v 0.115053 4.356010 0.066426
v -0.000000 1.000000 0.132852
v -0.000000 4.356010 0.132852
v -0.115053 1.000000 0.066426
v -0.115053 4.356010 0.066426
v -0.115053 1.000000 -0.066426
v -0.115053 4.356010 -0.066426
vt 1.000000 0.500000
vt 1.000000 1.000000
vt 0.833333 1.000000
vt 0.833333 0.500000
vt 0.666667 1.000000
vt 0.666667 0.500000
vt 0.500000 1.000000
vt 0.500000 0.500000
vt 0.333333 1.000000
vt 0.333333 0.500000
vt 0.457846 0.370000
vt 0.250000 0.010000
vt 0.457846 0.130000
vt 0.166667 1.000000
vt 0.166667 0.500000
vt -0.000000 1.000000
vt -0.000000 0.500000
vt 0.250000 0.490000
vt 0.042154 0.370000
vt 0.043716 0.129098
vn 0.5000 0.0000 -0.8660
vn 1.0000 0.0000 0.0000
vn 0.5000 0.0000 0.8660
vn -0.5000 0.0000 0.8660
vn 0.0000 1.0000 0.0000
vn -1.0000 0.0000 0.0000
vn -0.5000 0.0000 -0.8660
usemtl Material.001
s off
f 36/64/20 37/65/20 39/66/20 38/67/20
f 38/67/21 39/66/21 41/68/21 40/69/21
f 40/69/22 41/68/22 43/70/22 42/71/22
f 42/71/23 43/70/23 45/72/23 44/73/23
f 39/74/24 43/75/24 41/76/24
f 44/73/25 45/72/25 47/77/25 46/78/25
f 46/78/26 47/77/26 37/79/26 36/80/26
f 43/75/24 39/74/24 37/81/24
f 37/81/24 47/82/24 45/83/24
f 45/83/24 43/75/24 37/81/24
