{
	"asset":{
		"generator":"Khronos glTF Blender I/O v3.5.30",
		"version":"2.0"
	},
	"scene":0,
	"scenes":[
		{
			"name":"Scene",
			"nodes":[
				0
			]
		}
	],
	"nodes":[
		{
			"mesh":0,
			"name":"Icosphere.001"
		}
	],
	"meshes":[
		{
			"name":"Icosphere.003",
			"primitives":[
				{
					"attributes":{
						"POSITION":0,
						"TEXCOORD_0":1,
						"NORMAL":2
					},
					"indices":3
				}
			]
		}
	],
	"accessors":[
		{
			"bufferView":0,
			"componentType":5126,
			"count":216,
			"max":[
				3.5766313076019287,
				1.5224339962005615,
				1.1995993852615356
			],
			"min":[
				-1.022564172744751,
				-0.9955937266349792,
				-1.3603966236114502
			],
			"type":"VEC3"
		},
		{
			"bufferView":1,
			"componentType":5126,
			"count":216,
			"type":"VEC2"
		},
		{
			"bufferView":2,
			"componentType":5126,
			"count":216,
			"type":"VEC3"
		},
		{
			"bufferView":3,
			"componentType":5123,
			"count":294,
			"type":"SCALAR"
		}
	],
	"bufferViews":[
		{
			"buffer":0,
			"byteLength":2592,
			"byteOffset":0,
			"target":34962
		},
		{
			"buffer":0,
			"byteLength":1728,
			"byteOffset":2592,
			"target":34962
		},
		{
			"buffer":0,
			"byteLength":2592,
			"byteOffset":4320,
			"target":34962
		},
		{
			"buffer":0,
			"byteLength":588,
			"byteOffset":6912,
			"target":34963
		}
	],
	"buffers":[
		{
			"byteLength":7500,
			"uri":"data:application/octet-stream;base64,"
		}
	]
}
