{
	"asset":{
		"generator":"Khronos glTF Blender I/O v3.5.30",
		"version":"2.0"
	},
	"scene":0,
	"scenes":[
		{
			"name":"Scene",
			"nodes":[
				0
			]
		}
	],
	"nodes":[
		{
			"mesh":0,
			"name":"Circle"
		}
	],
	"materials":[
		{
			"doubleSided":true,
			"name":"Material.001",
			"pbrMetallicRoughness":{
				"baseColorFactor":[
					0.1832626760005951,
					0.1832626760005951,
					0.1832626760005951,
					1
				],
				"metallicFactor":0,
				"roughnessFactor":0.5
			}
		}
	],
	"meshes":[
		{
			"name":"Circle",
			"primitives":[
				{
					"attributes":{
						"POSITION":0,
						"TEXCOORD_0":1,
						"NORMAL":2
					},
					"indices":3,
					"material":0
				}
			]
		}
	],
	"accessors":[
		{
			"bufferView":0,
			"componentType":5126,
			"count":248,
			"max":[
				57.141422271728516,
				21.755908966064453,
				36.313758850097656
			],
			"min":[
				-34.07716369628906,
				-10.818977355957031,
				-37.511146545410156
			],
			"type":"VEC3"
		},
		{
			"bufferView":1,
			"componentType":5126,
			"count":248,
			"type":"VEC2"
		},
		{
			"bufferView":2,
			"componentType":5126,
			"count":248,
			"type":"VEC3"
		},
		{
			"bufferView":3,
			"componentType":5123,
			"count":294,
			"type":"SCALAR"
		}
	],
	"bufferViews":[
		{
			"buffer":0,
			"byteLength":2976,
			"byteOffset":0,
			"target":34962
		},
		{
			"buffer":0,
			"byteLength":1984,
			"byteOffset":2976,
			"target":34962
		},
		{
			"buffer":0,
			"byteLength":2976,
			"byteOffset":4960,
			"target":34962
		},
		{
			"buffer":0,
			"byteLength":588,
			"byteOffset":7936,
			"target":34963
		}
	],
	"buffers":[
		{
			"byteLength":8524,
			"uri":"data:application/octet-stream;base64,"
		}
	]
}
