# Blender v2.91.2 OBJ File: 'sail.blend'
# www.blender.org
mtllib sail.mtl
o Plane.001_Plane.002
v 0.424819 3.760996 -1.419818
v 0.345215 3.760996 -1.427771
v 0.309494 3.705178 -1.472585
v 0.353375 3.649359 -1.509445
v 0.432979 3.649359 -1.501491
v 0.468701 3.705178 -1.456678
v -0.029887 0.398206 3.131279
v -0.109491 0.398206 3.123326
v -0.145213 0.342387 3.078512
v -0.101331 0.286569 3.041653
v -0.021727 0.286569 3.049606
v 0.013995 0.342387 3.094419
v 1.482913 0.569830 -1.020148
v 0.013995 0.342387 3.094419
v 0.468701 3.705178 -1.456678
v 0.428972 1.717657 1.289254
v 0.770200 0.550276 1.548116
v 0.590495 2.858532 -0.273981
v 1.297415 0.631908 0.071342
v 1.253936 2.033100 -1.167203
v 0.901911 2.317819 -0.168743
v 0.962766 2.879249 -1.279987
v 1.480517 1.299057 -1.077438
v 1.185733 1.676263 -0.062378
v 0.817579 1.073552 1.463714
v 0.652546 1.424543 1.380532
v 0.013995 0.342387 3.094419
v 1.280956 1.123920 0.016416
v 0.841513 0.778065 1.523886
vt 0.000000 1.000000
vt 1.000000 1.000000
vt 1.000000 0.833333
vt 0.000000 0.833333
vt 0.000000 0.166667
vt 1.000000 0.166667
vt 1.000000 0.000000
vt 0.000000 0.000000
vt 0.000000 0.333333
vt 1.000000 0.333333
vt 0.000000 0.500000
vt 1.000000 0.500000
vt 0.000000 0.666667
vt 1.000000 0.666667
vt 0.276906 0.324346
vt 0.000000 0.501549
vt 0.000000 0.250774
vt 0.286058 0.139811
vt 0.266274 0.538687
vt 0.000000 0.750774
vt 0.256096 0.743904
vt 0.000000 1.000000
vt 0.613617 0.277055
vt 0.630401 0.155611
vt 1.000000 0.000000
vt 0.996608 0.003392
vt 0.596085 0.403915
vt 0.292993 0.000000
vt 0.651907 0.000000
vt 0.644530 0.053372
vt 0.000000 0.000000
vn 0.8323 0.4028 0.3808
vn -0.0589 0.8057 0.5894
vn -0.8912 0.4028 0.2086
vn -0.8323 -0.4028 -0.3808
vn 0.0589 -0.8057 -0.5894
vn 0.8912 -0.4028 -0.2086
vn -0.0801 -0.5924 0.8017
vn 0.0801 0.5924 -0.8017
vn -0.9487 -0.2607 -0.1786
vn -0.9013 -0.3792 -0.2096
vn -0.7920 -0.5295 -0.3040
vn -0.8144 -0.4404 -0.3778
vn -0.6982 -0.4586 -0.5497
vn -0.5482 -0.5997 -0.5829
vn -0.9522 0.0393 -0.3028
vn -0.8516 -0.1700 -0.4959
vn -0.9841 -0.0313 -0.1750
vn -0.6972 -0.5544 -0.4544
vn -0.9347 -0.1815 -0.3056
vn -0.8854 0.2345 -0.4015
usemtl Material
s off
f 1/1/1 7/2/1 12/3/1 6/4/1
f 2/5/2 8/6/2 7/7/2 1/8/2
f 3/9/3 9/10/3 8/6/3 2/5/3
f 4/11/4 10/12/4 9/10/4 3/9/4
f 5/13/5 11/14/5 10/12/5 4/11/5
f 6/4/6 12/3/6 11/14/6 5/13/6
f 12/3/7 7/7/7 8/6/7 9/10/7 10/12/7 11/14/7
f 6/4/8 5/13/8 4/11/8 3/9/8 2/5/8 1/8/8
usemtl Material.002
f 24/15/9 20/16/9 23/17/9 28/18/9
f 20/16/10 24/15/10 21/19/10 22/20/10
f 22/20/11 21/19/11 18/21/11 15/22/11
f 26/23/12 21/19/12 24/15/12 25/24/12
f 25/24/13 14/25/13 27/26/13 26/23/13
f 26/23/14 27/26/14 16/27/14
f 19/28/15 17/29/15 29/30/15 28/18/15
f 14/25/16 25/24/16 29/30/16
f 28/18/17 23/17/17 13/31/17 19/28/17
f 16/27/18 18/21/18 21/19/18 26/23/18
f 28/18/19 29/30/19 25/24/19 24/15/19
f 14/25/20 29/30/20 17/29/20
